<svg data-v-423bf9ae="" xmlns="http://www.w3.org/2000/svg" viewBox="0 0 167.95156527693896 163" class="iconAbove"><!----><!----><!----><g data-v-423bf9ae="" id="2723d0d2-cca3-4c3b-a615-b21cd8267aea" fill="#53BBAD" transform="matrix(6.054490506946714,0,0,6.054490506946714,-5.751764368593072,77.57114197930053)"><path d="M5.57 4.37L5.57 4.37Q5.57 4.30 5.62 4.25L5.62 4.25L5.62 4.25Q5.67 4.20 5.74 4.20L5.74 4.20L6.15 4.20L6.15 4.20Q6.22 4.20 6.27 4.25L6.27 4.25L6.27 4.25Q6.31 4.30 6.31 4.37L6.31 4.37L6.31 13.83L6.31 13.83Q6.31 13.90 6.27 13.95L6.27 13.95L6.27 13.95Q6.22 14 6.15 14L6.15 14L5.74 14L5.74 14Q5.67 14 5.62 13.95L5.62 13.95L5.62 13.95Q5.57 13.90 5.57 13.83L5.57 13.83L5.57 13.17L5.57 13.17Q5.57 13.13 5.55 13.13L5.55 13.13L5.55 13.13Q5.53 13.12 5.50 13.15L5.50 13.15L5.50 13.15Q5.19 13.61 4.71 13.86L4.71 13.86L4.71 13.86Q4.23 14.11 3.61 14.11L3.61 14.11L3.61 14.11Q2.66 14.11 2.00 13.61L2.00 13.61L2.00 13.61Q1.34 13.10 1.11 12.25L1.11 12.25L1.11 12.25Q0.95 11.66 0.95 10.49L0.95 10.49L0.95 10.49Q0.95 9.86 0.98 9.45L0.98 9.45L0.98 9.45Q1.01 9.04 1.09 8.72L1.09 8.72L1.09 8.72Q1.32 7.85 1.98 7.34L1.98 7.34L1.98 7.34Q2.65 6.83 3.61 6.83L3.61 6.83L3.61 6.83Q4.23 6.83 4.71 7.08L4.71 7.08L4.71 7.08Q5.19 7.32 5.50 7.78L5.50 7.78L5.50 7.78Q5.52 7.81 5.54 7.80L5.54 7.80L5.54 7.80Q5.57 7.78 5.57 7.76L5.57 7.76L5.57 4.37ZM5.39 12.14L5.39 12.14Q5.49 11.87 5.52 11.54L5.52 11.54L5.52 11.54Q5.56 11.20 5.56 10.49L5.56 10.49L5.56 10.49Q5.56 9.74 5.52 9.40L5.52 9.40L5.52 9.40Q5.47 9.06 5.38 8.78L5.38 8.78L5.38 8.78Q5.24 8.20 4.79 7.85L4.79 7.85L4.79 7.85Q4.34 7.49 3.70 7.49L3.70 7.49L3.70 7.49Q3.04 7.49 2.56 7.85L2.56 7.85L2.56 7.85Q2.09 8.20 1.92 8.76L1.92 8.76L1.92 8.76Q1.79 9.06 1.74 9.39L1.74 9.39L1.74 9.39Q1.69 9.73 1.69 10.47L1.69 10.47L1.69 10.47Q1.69 11.17 1.74 11.50L1.74 11.50L1.74 11.50Q1.78 11.83 1.88 12.14L1.88 12.14L1.88 12.14Q2.03 12.73 2.52 13.09L2.52 13.09L2.52 13.09Q3.01 13.45 3.70 13.45L3.70 13.45L3.70 13.45Q4.35 13.45 4.79 13.09L4.79 13.09L4.79 13.09Q5.24 12.73 5.39 12.14L5.39 12.14ZM11.41 6.89L11.41 6.89Q11.84 6.89 12.21 7.04L12.21 7.04L12.21 7.04Q12.33 7.10 12.29 7.25L12.29 7.25L12.18 7.66L12.18 7.66Q12.14 7.83 11.97 7.76L11.97 7.76L11.97 7.76Q11.66 7.66 11.30 7.67L11.30 7.67L11.30 7.67Q10.51 7.69 10.00 8.27L10.00 8.27L10.00 8.27Q9.49 8.85 9.49 9.69L9.49 9.69L9.49 13.83L9.49 13.83Q9.49 13.90 9.44 13.95L9.44 13.95L9.44 13.95Q9.39 14 9.32 14L9.32 14L8.92 14L8.92 14Q8.85 14 8.80 13.95L8.80 13.95L8.80 13.95Q8.75 13.90 8.75 13.83L8.75 13.83L8.75 7.11L8.75 7.11Q8.75 7.04 8.80 6.99L8.80 6.99L8.80 6.99Q8.85 6.94 8.92 6.94L8.92 6.94L9.32 6.94L9.32 6.94Q9.39 6.94 9.44 6.99L9.44 6.99L9.44 6.99Q9.49 7.04 9.49 7.11L9.49 7.11L9.49 8.04L9.49 8.04Q9.49 8.08 9.51 8.09L9.51 8.09L9.51 8.09Q9.53 8.09 9.55 8.05L9.55 8.05L9.55 8.05Q9.84 7.50 10.31 7.20L10.31 7.20L10.31 7.20Q10.78 6.89 11.41 6.89L11.41 6.89ZM16.11 6.83L16.11 6.83Q17.35 6.83 17.99 7.47L17.99 7.47L17.99 7.47Q18.63 8.11 18.63 9.18L18.63 9.18L18.63 13.83L18.63 13.83Q18.63 13.90 18.59 13.95L18.59 13.95L18.59 13.95Q18.54 14 18.47 14L18.47 14L18.06 14L18.06 14Q17.99 14 17.94 13.95L17.94 13.95L17.94 13.95Q17.89 13.90 17.89 13.83L17.89 13.83L17.89 13.23L17.89 13.23Q17.89 13.20 17.87 13.19L17.87 13.19L17.87 13.19Q17.85 13.17 17.82 13.20L17.82 13.20L17.82 13.20Q17.46 13.65 16.86 13.88L16.86 13.88L16.86 13.88Q16.25 14.11 15.57 14.11L15.57 14.11L15.57 14.11Q14.59 14.11 13.93 13.63L13.93 13.63L13.93 13.63Q13.27 13.15 13.27 12.12L13.27 12.12L13.27 12.12Q13.27 11.09 14.04 10.49L14.04 10.49L14.04 10.49Q14.81 9.88 16.16 9.88L16.16 9.88L17.84 9.88L17.84 9.88Q17.89 9.88 17.89 9.83L17.89 9.83L17.89 9.20L17.89 9.20Q17.89 8.40 17.46 7.95L17.46 7.95L17.46 7.95Q17.02 7.49 16.10 7.49L16.10 7.49L16.10 7.49Q15.39 7.49 14.92 7.78L14.92 7.78L14.92 7.78Q14.46 8.06 14.35 8.55L14.35 8.55L14.35 8.55Q14.31 8.72 14.15 8.69L14.15 8.69L13.72 8.64L13.72 8.64Q13.54 8.61 13.57 8.48L13.57 8.48L13.57 8.48Q13.71 7.74 14.39 7.29L14.39 7.29L14.39 7.29Q15.08 6.83 16.11 6.83L16.11 6.83ZM15.71 13.47L15.71 13.47Q16.59 13.47 17.24 13.03L17.24 13.03L17.24 13.03Q17.89 12.60 17.89 11.83L17.89 11.83L17.89 10.56L17.89 10.56Q17.89 10.50 17.84 10.50L17.84 10.50L16.24 10.50L16.24 10.50Q15.23 10.50 14.62 10.92L14.62 10.92L14.62 10.92Q14.01 11.34 14.01 12.08L14.01 12.08L14.01 12.08Q14.01 12.77 14.49 13.12L14.49 13.12L14.49 13.12Q14.97 13.47 15.71 13.47L15.71 13.47ZM23.44 4.86L23.44 4.86Q22.61 4.86 22.31 5.25L22.31 5.25L22.31 5.25Q22.01 5.64 22.01 6.52L22.01 6.52L22.01 6.89L22.01 6.89Q22.01 6.94 22.06 6.94L22.06 6.94L23.67 6.94L23.67 6.94Q23.74 6.94 23.79 6.99L23.79 6.99L23.79 6.99Q23.84 7.04 23.84 7.11L23.84 7.11L23.84 7.46L23.84 7.46Q23.84 7.53 23.79 7.58L23.79 7.58L23.79 7.58Q23.74 7.63 23.67 7.63L23.67 7.63L22.06 7.63L22.06 7.63Q22.01 7.63 22.01 7.69L22.01 7.69L22.01 13.83L22.01 13.83Q22.01 13.90 21.96 13.95L21.96 13.95L21.96 13.95Q21.91 14 21.84 14L21.84 14L21.43 14L21.43 14Q21.36 14 21.31 13.95L21.31 13.95L21.31 13.95Q21.27 13.90 21.27 13.83L21.27 13.83L21.27 7.69L21.27 7.69Q21.27 7.63 21.21 7.63L21.21 7.63L20.31 7.63L20.31 7.63Q20.24 7.63 20.20 7.58L20.20 7.58L20.20 7.58Q20.15 7.53 20.15 7.46L20.15 7.46L20.15 7.11L20.15 7.11Q20.15 7.04 20.20 6.99L20.20 6.99L20.20 6.99Q20.24 6.94 20.31 6.94L20.31 6.94L21.21 6.94L21.21 6.94Q21.27 6.94 21.27 6.89L21.27 6.89L21.27 6.50L21.27 6.50Q21.27 5.67 21.45 5.18L21.45 5.18L21.45 5.18Q21.64 4.69 22.10 4.45L22.10 4.45L22.10 4.45Q22.55 4.20 23.38 4.20L23.38 4.20L23.72 4.20L23.72 4.20Q23.79 4.20 23.84 4.25L23.84 4.25L23.84 4.25Q23.88 4.30 23.88 4.37L23.88 4.37L23.88 4.69L23.88 4.69Q23.88 4.76 23.84 4.81L23.84 4.81L23.84 4.81Q23.79 4.86 23.72 4.86L23.72 4.86L23.44 4.86ZM28.69 7.41L28.69 7.41Q28.69 7.48 28.64 7.52L28.64 7.52L28.64 7.52Q28.59 7.57 28.52 7.57L28.52 7.57L26.91 7.57L26.91 7.57Q26.85 7.57 26.85 7.63L26.85 7.63L26.85 12.04L26.85 12.04Q26.85 12.75 27.17 13.04L27.17 13.04L27.17 13.04Q27.50 13.33 28.21 13.33L28.21 13.33L28.50 13.33L28.50 13.33Q28.57 13.33 28.62 13.38L28.62 13.38L28.62 13.38Q28.67 13.43 28.67 13.50L28.67 13.50L28.67 13.82L28.67 13.82Q28.67 13.99 28.50 13.99L28.50 13.99L28.11 14L28.11 14Q27.15 14 26.64 13.62L26.64 13.62L26.64 13.62Q26.14 13.24 26.12 12.24L26.12 12.24L26.12 7.63L26.12 7.63Q26.12 7.57 26.07 7.57L26.07 7.57L25.26 7.57L25.26 7.57Q25.19 7.57 25.14 7.52L25.14 7.52L25.14 7.52Q25.09 7.48 25.09 7.41L25.09 7.41L25.09 7.11L25.09 7.11Q25.09 7.04 25.14 6.99L25.14 6.99L25.14 6.99Q25.19 6.94 25.26 6.94L25.26 6.94L26.07 6.94L26.07 6.94Q26.12 6.94 26.12 6.89L26.12 6.89L26.12 5.32L26.12 5.32Q26.12 5.25 26.17 5.20L26.17 5.20L26.17 5.20Q26.22 5.15 26.29 5.15L26.29 5.15L26.68 5.15L26.68 5.15Q26.75 5.15 26.80 5.20L26.80 5.20L26.80 5.20Q26.85 5.25 26.85 5.32L26.85 5.32L26.85 6.89L26.85 6.89Q26.85 6.94 26.91 6.94L26.91 6.94L28.52 6.94L28.52 6.94Q28.59 6.94 28.64 6.99L28.64 6.99L28.64 6.99Q28.69 7.04 28.69 7.11L28.69 7.11L28.69 7.41Z"></path></g><!----><g data-v-423bf9ae="" id="019c901f-f506-4d34-b187-81e57ac89834" transform="matrix(1.0867729288840349,0,0,1.0867729288840349,29.926797789211335,-8.745690210296061)" stroke="none" fill="#53BBAD"><path d="M21.869 68.713l-8.53 9.701a.895.895 0 0 1-.137.125v8.856c0 1.414.25 2.764 1.599 3.554 2.117 1.239 4.855-.347 4.855-2.792V75.755v-.762c1.316 1.807 3.774 3.091 6.031 2.617 2.019-.423 3.901-1.837 4.72-3.75.456-1.063.457-2.186.502-3.315l-9.04-1.832z"></path><path d="M96.521 28L84.53 16.897c-3.124-2.894-6.382-5.427-10.447-6.891-5.234-1.884-10.674-1.775-15.997-.313-1.665.457-1.153 2.938.551 2.721 1.671-.214 3.321-.349 5.009-.272 3.682.167 7.267 1.38 10.319 3.437l-9.308 1.573c-1.112.188-3.825.282-3.039 2.181.551 1.331 2.38 2.292 3.646 2.75a9.031 9.031 0 0 0 5.296.264l-.062.066c1.752-.542 3.962-1.599 6.565-3.593a.896.896 0 1 1 1.088 1.422c-4.201 3.217-7.533 4.217-9.77 4.437l-3.178 3.403c-2.035 2.181-4.141 5.078-7.075 6.023-1.579.508-3.229.395-4.862.395H16.952c-2.492 0-4.838.358-6.649 2.32-1.755 1.903-1.908 4.174-1.908 6.588 0 2.695.005 16.338.005 20.464-1.184-2.356-4.667-2.317-5.798.062-.368.773-.311 1.599-.311 2.426v18.835c0 2.235-.446 5.305 2.369 6.079 2.169.598 4.084-1.136 4.084-3.28V74.827c.962 1.727 3.216 1.733 4.456.344v.213l7.489-8.516c.249-.283.63-.41.999-.337l10.766 2.182 22.759.491v18.767c0 1.723 1.159 3.262 2.955 3.423 1.962.178 3.521-1.42 3.521-3.334V69.344l1.883-.008v18.813c0 2.219 2.251 3.838 4.353 3.056 2.519-.938 2.101-3.731 2.101-5.864V65.546c0-5.898-.367-11.931 1.169-17.681.828-3.1 2.378-5.461 4.064-8.118l4.265-6.72s3.021.333 3.426.382c.917.111 1.952.091 2.167 1.156.28.927.523 1.819.989 2.681.474.878 1.288 2.279 2.275 2.685 1.301.532 2.47-1.11 1.536-2.163-.594-.712-.542-2.31-.466-3.178 1.565.25 3.503.902 5.091.611 3.146-.574 4.274-5.076 1.979-7.201z"></path></g><!----></svg>